<svg height="512" viewBox="0 0 64 64" width="512" xmlns="http://www.w3.org/2000/svg"><g id="Layer_28" data-name="Layer 28"><path d="m38 58h12v4h-12z" fill="#fddfb1"/><path d="m14 40h16v8h-16z" fill="#2763bb" transform="matrix(-1 0 0 -1 44 88)"/><path d="m14 40v6h12a2 2 0 0 0 2-2v-4z" fill="#3079e6"/><path d="m30 12a2 2 0 0 0 -2 2v4a2 2 0 0 0 -4 0 2 2 0 0 0 -4 0v-6a2 2 0 0 0 -4 0v13h-2a2 2 0 0 0 -2 2v2.359a2 2 0 0 0 .373 1.163l3.627 6.478v3h12v-.515a6 6 0 0 1 1.757-4.242l.486-.486a6 6 0 0 0 1.757-4.242v-16.515a2 2 0 0 0 -2-2z" fill="#fddfb1"/><path d="m16 48h12v14h-12z" fill="#fddfb1"/><path d="m48.999 2 6.001 10h-3l8 13-2-10 4-.001-4-12.999z" fill="#f3a845"/><path d="m15 2-6.001 10h3l-8 13 2-10-4-.001 4-12.999z" fill="#f3a845"/><path d="m36 50h16v8h-16z" fill="#2763bb" transform="matrix(-1 0 0 -1 88 108)"/><path d="m36 50v6h12a2 2 0 0 0 2-2v-4z" fill="#3079e6"/><path d="m52 22a2 2 0 0 0 -2 2v4a2 2 0 0 0 -4 0 2 2 0 0 0 -4 0v-6a2 2 0 0 0 -4 0v13h-2a2 2 0 0 0 -2 2v2.359a2 2 0 0 0 .373 1.163l3.627 6.478v3h12v-.515a6 6 0 0 1 1.757-4.242l.486-.486a6 6 0 0 0 1.757-4.242v-16.515a2 2 0 0 0 -2-2z" fill="#fddfb1"/><path d="m39 53h2v2h-2z"/><path d="m43 53h2v2h-2z"/><path d="m47 53h2v2h-2z"/><path d="m17 43h2v2h-2z"/><path d="m21 43h2v2h-2z"/><path d="m25 43h2v2h-2z"/><path d="m51 61v-2h1a1 1 0 0 0 1-1v-8a1 1 0 0 0 -1-1h-.953a4.955 4.955 0 0 1 1.417-3.05l.486-.485a6.958 6.958 0 0 0 2.05-4.95v-16.515a3 3 0 0 0 -6 0v1.184a2.908 2.908 0 0 0 -3 .6 2.908 2.908 0 0 0 -3-.6v-3.184a3 3 0 0 0 -6 0v12h-1a3 3 0 0 0 -3 3v2.359a2.985 2.985 0 0 0 .524 1.7l3.476 6.202v1.739h-1a1 1 0 0 0 -1 1v8a1 1 0 0 0 1 1h1v2h-8v-12h1a1 1 0 0 0 1-1v-8a1 1 0 0 0 -1-1h-.953a4.955 4.955 0 0 1 1.417-3.05l.486-.485a6.958 6.958 0 0 0 2.05-4.95v-16.515a3 3 0 0 0 -6 0v1.184a2.908 2.908 0 0 0 -3 .6 2.908 2.908 0 0 0 -3-.6v-3.184a3 3 0 0 0 -6 0v12h-1a3 3 0 0 0 -3 3v2.359a2.985 2.985 0 0 0 .524 1.695l3.476 6.207v1.739h-1a1 1 0 0 0 -1 1v8a1 1 0 0 0 1 1h1v12h-14v2h62v-2zm-26-43a1 1 0 0 1 2 0v7a1 1 0 0 1 -2 0zm-4 0a1 1 0 0 1 2 0v7a1 1 0 0 1 -1 1 1.03 1.03 0 0 1 -.192-.025 2.992 2.992 0 0 0 -.808-1.195zm-4-6a1 1 0 0 1 2 0v12h-2zm-3.755 18.033a.91.91 0 0 0 -.059-.093.99.99 0 0 1 -.186-.581v-2.359a1 1 0 0 1 1-1h5a1 1 0 0 1 0 2h-4v2h4a3 3 0 0 0 2.823-2.023c.06 0 .117.023.177.023a2.981 2.981 0 0 0 2-.78 2.987 2.987 0 0 0 5-2.22v-11a1 1 0 0 1 2 0v16.515a4.969 4.969 0 0 1 -1.464 3.535l-.486.485a6.947 6.947 0 0 0 -2.026 4.465h-10.024v-2a1 1 0 0 0 -.127-.488zm1.755 10.967h14v6h-14zm12 20h-10v-12h10zm20-33a1 1 0 0 1 2 0v7a1 1 0 0 1 -2 0zm-4 0a1 1 0 0 1 2 0v7a1 1 0 0 1 -1 1 1.03 1.03 0 0 1 -.192-.025 2.992 2.992 0 0 0 -.808-1.195zm-4-6a1 1 0 0 1 2 0v12h-2zm-3.755 18.033a.91.91 0 0 0 -.059-.093.99.99 0 0 1 -.186-.581v-2.359a1 1 0 0 1 1-1h5a1 1 0 0 1 0 2h-4v2h4a3 3 0 0 0 2.823-2.023c.06 0 .117.023.177.023a2.981 2.981 0 0 0 2-.78 2.987 2.987 0 0 0 5-2.22v-11a1 1 0 0 1 2 0v16.515a4.969 4.969 0 0 1 -1.464 3.535l-.486.485a6.947 6.947 0 0 0 -2.026 4.465h-10.024v-2a1 1 0 0 0 -.127-.488zm1.755 10.967h14v6h-14zm12 10h-10v-2h10z"/><path d="m53.234 11h-1.234a1 1 0 0 0 -.852 1.524l8 13a1 1 0 0 0 1.832-.72l-1.76-8.804h2.78a1 1 0 0 0 .956-1.294l-4-13a1 1 0 0 0 -.956-.706h-9a1 1 0 0 0 -.857 1.515zm4.027-8 3.385 11h-2.646a1 1 0 0 0 -.98 1.2l.9 4.522-4.13-6.722h1.21a1 1 0 0 0 .857-1.515l-5.092-8.485z"/><path d="m2 16h2.78l-1.76 8.8a1 1 0 0 0 1.832.72l8-13a1 1 0 0 0 -.852-1.52h-1.235l5.092-8.485a1 1 0 0 0 -.857-1.515h-9a1 1 0 0 0 -.956.706l-4 13a1 1 0 0 0 .956 1.294zm4.738-13h6.5l-5.096 8.485a1 1 0 0 0 .858 1.515h1.21l-4.135 6.718.9-4.522a1 1 0 0 0 -.975-1.196h-2.647z"/><path d="m39 6h2v2h-2z"/><path d="m39 10h2v2h-2z"/><path d="m37 8h2v2h-2z"/><path d="m41 8h2v2h-2z"/><path d="m5 35h2v2h-2z"/><path d="m5 39h2v2h-2z"/><path d="m3 37h2v2h-2z"/><path d="m7 37h2v2h-2z"/></g></svg>